<svg width="299" height="49" viewBox="0 0 299 49" fill="none" xmlns="http://www.w3.org/2000/svg">
<path d="M1.5 47.5H297.5" stroke="#BFC0C5" stroke-width="2" stroke-linecap="square"/>
<path d="M63.468 6.076L59.436 19H57.708L54.558 9.415C54.486 9.223 54.423 8.992 54.369 8.722C54.303 8.998 54.24 9.229 54.18 9.415L50.994 19H49.275L45.243 6.076H46.845C47.013 6.076 47.154 6.118 47.268 6.202C47.382 6.28 47.457 6.388 47.493 6.526L50.04 15.175C50.088 15.343 50.13 15.526 50.166 15.724C50.208 15.922 50.25 16.129 50.292 16.345C50.334 16.129 50.376 15.922 50.418 15.724C50.466 15.526 50.52 15.343 50.58 15.175L53.496 6.526C53.532 6.406 53.607 6.301 53.721 6.211C53.841 6.121 53.982 6.076 54.144 6.076H54.693C54.861 6.076 54.999 6.118 55.107 6.202C55.215 6.286 55.293 6.394 55.341 6.526L58.248 15.175C58.356 15.505 58.452 15.88 58.536 16.3C58.608 15.886 58.686 15.511 58.77 15.175L61.326 6.526C61.356 6.406 61.431 6.301 61.551 6.211C61.671 6.121 61.812 6.076 61.974 6.076H63.468ZM66.5857 11.017C66.9697 10.627 67.3927 10.312 67.8547 10.072C68.3227 9.832 68.8597 9.712 69.4657 9.712C69.9697 9.712 70.4107 9.796 70.7887 9.964C71.1727 10.132 71.4937 10.369 71.7517 10.675C72.0097 10.975 72.2047 11.338 72.3367 11.764C72.4687 12.19 72.5347 12.661 72.5347 13.177V19H70.7707V13.177C70.7707 12.523 70.6207 12.016 70.3207 11.656C70.0207 11.29 69.5617 11.107 68.9437 11.107C68.4937 11.107 68.0707 11.215 67.6747 11.431C67.2847 11.641 66.9217 11.929 66.5857 12.295V19H64.8307V5.716H66.5857V11.017ZM79.8169 14.941C79.1029 14.965 78.4969 15.022 77.9989 15.112C77.5009 15.196 77.0959 15.31 76.7839 15.454C76.4719 15.598 76.2469 15.769 76.1089 15.967C75.9709 16.159 75.9019 16.375 75.9019 16.615C75.9019 16.843 75.9379 17.041 76.0099 17.209C76.0879 17.371 76.1899 17.506 76.3159 17.614C76.4479 17.716 76.6009 17.791 76.7749 17.839C76.9489 17.887 77.1379 17.911 77.3419 17.911C77.6119 17.911 77.8579 17.884 78.0799 17.83C78.3079 17.776 78.5209 17.701 78.7189 17.605C78.9169 17.503 79.1059 17.38 79.2859 17.236C79.4659 17.092 79.6429 16.927 79.8169 16.741V14.941ZM74.6689 11.134C75.1789 10.648 75.7309 10.285 76.3249 10.045C76.9249 9.805 77.5819 9.685 78.2959 9.685C78.8179 9.685 79.2799 9.772 79.6819 9.946C80.0839 10.114 80.4229 10.351 80.6989 10.657C80.9749 10.963 81.1819 11.329 81.3199 11.755C81.4639 12.181 81.5359 12.652 81.5359 13.168V19H80.7529C80.5789 19 80.4469 18.973 80.3569 18.919C80.2669 18.859 80.1949 18.751 80.1409 18.595L79.9519 17.794C79.7179 18.01 79.4869 18.202 79.2589 18.37C79.0309 18.532 78.7909 18.673 78.5389 18.793C78.2929 18.907 78.0289 18.994 77.7469 19.054C77.4649 19.114 77.1529 19.144 76.8109 19.144C76.4509 19.144 76.1119 19.096 75.7939 19C75.4819 18.898 75.2089 18.745 74.9749 18.541C74.7409 18.337 74.5549 18.082 74.4169 17.776C74.2849 17.47 74.2189 17.113 74.2189 16.705C74.2189 16.345 74.3149 16 74.5069 15.67C74.7049 15.334 75.0229 15.034 75.4609 14.77C75.9049 14.506 76.4809 14.29 77.1889 14.122C77.9029 13.954 78.7789 13.858 79.8169 13.834V13.168C79.8169 12.478 79.6699 11.962 79.3759 11.62C79.0819 11.278 78.6499 11.107 78.0799 11.107C77.6959 11.107 77.3719 11.155 77.1079 11.251C76.8499 11.347 76.6249 11.455 76.4329 11.575C76.2469 11.689 76.0819 11.794 75.9379 11.89C75.7999 11.986 75.6559 12.034 75.5059 12.034C75.3859 12.034 75.2809 12.001 75.1909 11.935C75.1069 11.869 75.0379 11.791 74.9839 11.701L74.6689 11.134ZM86.6243 19.144C85.8863 19.144 85.3163 18.937 84.9143 18.523C84.5183 18.109 84.3203 17.518 84.3203 16.75V11.278H83.2583C83.1563 11.278 83.0693 11.248 82.9973 11.188C82.9313 11.122 82.8983 11.026 82.8983 10.9V10.189L84.3833 9.982L84.7793 7.255C84.8033 7.153 84.8483 7.075 84.9143 7.021C84.9863 6.961 85.0763 6.931 85.1843 6.931H86.0753V10H88.6673V11.278H86.0753V16.633C86.0753 16.993 86.1623 17.263 86.3363 17.443C86.5163 17.617 86.7443 17.704 87.0203 17.704C87.1823 17.704 87.3203 17.683 87.4343 17.641C87.5543 17.599 87.6563 17.554 87.7403 17.506C87.8243 17.452 87.8963 17.404 87.9563 17.362C88.0163 17.32 88.0703 17.299 88.1183 17.299C88.1783 17.299 88.2233 17.314 88.2533 17.344C88.2893 17.368 88.3253 17.41 88.3613 17.47L88.8833 18.316C88.5953 18.58 88.2533 18.784 87.8573 18.928C87.4613 19.072 87.0503 19.144 86.6243 19.144ZM107.184 9.856L104.241 19H102.837C102.669 19 102.555 18.889 102.495 18.667L100.569 12.709C100.521 12.559 100.479 12.412 100.443 12.268C100.407 12.118 100.374 11.968 100.344 11.818C100.29 12.13 100.215 12.433 100.119 12.727L98.1664 18.667C98.1064 18.889 97.9774 19 97.7794 19H96.4474L93.4954 9.856H94.8814C95.0194 9.856 95.1334 9.889 95.2234 9.955C95.3194 10.021 95.3824 10.105 95.4124 10.207L97.0594 15.823C97.1134 16.051 97.1614 16.273 97.2034 16.489C97.2454 16.705 97.2844 16.921 97.3204 17.137C97.3744 16.921 97.4314 16.705 97.4914 16.489C97.5574 16.273 97.6234 16.051 97.6894 15.823L99.5164 10.171C99.5464 10.069 99.6034 9.988 99.6874 9.928C99.7714 9.862 99.8734 9.829 99.9934 9.829H100.758C100.89 9.829 100.998 9.862 101.082 9.928C101.172 9.988 101.232 10.069 101.262 10.171L103.044 15.823C103.11 16.051 103.173 16.276 103.233 16.498C103.293 16.714 103.347 16.933 103.395 17.155C103.431 16.939 103.473 16.723 103.521 16.507C103.569 16.285 103.623 16.057 103.683 15.823L105.357 10.207C105.387 10.105 105.447 10.021 105.537 9.955C105.633 9.889 105.741 9.856 105.861 9.856H107.184ZM112.427 9.712C113.099 9.712 113.705 9.823 114.245 10.045C114.791 10.261 115.253 10.576 115.631 10.99C116.015 11.398 116.309 11.893 116.513 12.475C116.717 13.051 116.819 13.699 116.819 14.419C116.819 15.139 116.717 15.79 116.513 16.372C116.309 16.954 116.015 17.449 115.631 17.857C115.253 18.265 114.791 18.58 114.245 18.802C113.705 19.018 113.099 19.126 112.427 19.126C111.749 19.126 111.137 19.018 110.591 18.802C110.051 18.58 109.589 18.265 109.205 17.857C108.821 17.449 108.524 16.954 108.314 16.372C108.11 15.79 108.008 15.139 108.008 14.419C108.008 13.699 108.11 13.051 108.314 12.475C108.524 11.893 108.821 11.398 109.205 10.99C109.589 10.576 110.051 10.261 110.591 10.045C111.137 9.823 111.749 9.712 112.427 9.712ZM112.427 17.758C113.291 17.758 113.936 17.467 114.362 16.885C114.788 16.303 115.001 15.484 115.001 14.428C115.001 13.372 114.788 12.553 114.362 11.971C113.936 11.383 113.291 11.089 112.427 11.089C111.551 11.089 110.897 11.383 110.465 11.971C110.039 12.553 109.826 13.372 109.826 14.428C109.826 15.484 110.039 16.303 110.465 16.885C110.897 17.467 111.551 17.758 112.427 17.758ZM126.383 9.856V19H125.33C125.09 19 124.934 18.883 124.862 18.649L124.736 17.731C124.538 17.941 124.331 18.133 124.115 18.307C123.899 18.481 123.668 18.631 123.422 18.757C123.176 18.877 122.915 18.97 122.639 19.036C122.363 19.108 122.066 19.144 121.748 19.144C121.244 19.144 120.8 19.06 120.416 18.892C120.038 18.724 119.72 18.49 119.462 18.19C119.204 17.884 119.009 17.518 118.877 17.092C118.745 16.666 118.679 16.195 118.679 15.679V9.856H120.443V15.679C120.443 16.333 120.593 16.843 120.893 17.209C121.193 17.569 121.652 17.749 122.27 17.749C122.72 17.749 123.14 17.644 123.53 17.434C123.92 17.218 124.286 16.924 124.628 16.552V9.856H126.383ZM130.633 5.716V19H128.869V5.716H130.633ZM139.034 12.07C138.746 11.692 138.434 11.428 138.098 11.278C137.768 11.128 137.396 11.053 136.982 11.053C136.178 11.053 135.554 11.344 135.11 11.926C134.672 12.502 134.453 13.345 134.453 14.455C134.453 15.037 134.501 15.535 134.597 15.949C134.699 16.357 134.843 16.693 135.029 16.957C135.221 17.215 135.455 17.407 135.731 17.533C136.007 17.653 136.319 17.713 136.667 17.713C137.177 17.713 137.618 17.599 137.99 17.371C138.362 17.143 138.71 16.822 139.034 16.408V12.07ZM140.798 5.716V19H139.736C139.49 19 139.337 18.883 139.277 18.649L139.124 17.596C138.734 18.058 138.29 18.43 137.792 18.712C137.3 18.988 136.73 19.126 136.082 19.126C135.56 19.126 135.086 19.024 134.66 18.82C134.24 18.616 133.88 18.319 133.58 17.929C133.28 17.533 133.049 17.044 132.887 16.462C132.725 15.88 132.644 15.211 132.644 14.455C132.644 13.777 132.734 13.147 132.914 12.565C133.094 11.983 133.355 11.479 133.697 11.053C134.039 10.627 134.453 10.294 134.939 10.054C135.425 9.808 135.974 9.685 136.586 9.685C137.138 9.685 137.606 9.775 137.99 9.955C138.38 10.135 138.728 10.39 139.034 10.72V5.716H140.798ZM155.334 9.856L150.258 21.655C150.204 21.787 150.132 21.889 150.042 21.961C149.952 22.033 149.82 22.069 149.646 22.069H148.341L150.015 18.424L146.262 9.856H147.792C147.942 9.856 148.059 9.892 148.143 9.964C148.227 10.036 148.287 10.117 148.323 10.207L150.645 15.697C150.693 15.835 150.738 15.976 150.78 16.12C150.828 16.258 150.867 16.396 150.897 16.534C150.939 16.39 150.984 16.249 151.032 16.111C151.08 15.967 151.131 15.826 151.185 15.688L153.426 10.207C153.468 10.105 153.534 10.021 153.624 9.955C153.714 9.889 153.816 9.856 153.93 9.856H155.334ZM160.31 9.712C160.982 9.712 161.588 9.823 162.128 10.045C162.674 10.261 163.136 10.576 163.514 10.99C163.898 11.398 164.192 11.893 164.396 12.475C164.6 13.051 164.702 13.699 164.702 14.419C164.702 15.139 164.6 15.79 164.396 16.372C164.192 16.954 163.898 17.449 163.514 17.857C163.136 18.265 162.674 18.58 162.128 18.802C161.588 19.018 160.982 19.126 160.31 19.126C159.632 19.126 159.02 19.018 158.474 18.802C157.934 18.58 157.472 18.265 157.088 17.857C156.704 17.449 156.407 16.954 156.197 16.372C155.993 15.79 155.891 15.139 155.891 14.419C155.891 13.699 155.993 13.051 156.197 12.475C156.407 11.893 156.704 11.398 157.088 10.99C157.472 10.576 157.934 10.261 158.474 10.045C159.02 9.823 159.632 9.712 160.31 9.712ZM160.31 17.758C161.174 17.758 161.819 17.467 162.245 16.885C162.671 16.303 162.884 15.484 162.884 14.428C162.884 13.372 162.671 12.553 162.245 11.971C161.819 11.383 161.174 11.089 160.31 11.089C159.434 11.089 158.78 11.383 158.348 11.971C157.922 12.553 157.709 13.372 157.709 14.428C157.709 15.484 157.922 16.303 158.348 16.885C158.78 17.467 159.434 17.758 160.31 17.758ZM174.266 9.856V19H173.213C172.973 19 172.817 18.883 172.745 18.649L172.619 17.731C172.421 17.941 172.214 18.133 171.998 18.307C171.782 18.481 171.551 18.631 171.305 18.757C171.059 18.877 170.798 18.97 170.522 19.036C170.246 19.108 169.949 19.144 169.631 19.144C169.127 19.144 168.683 19.06 168.299 18.892C167.921 18.724 167.603 18.49 167.345 18.19C167.087 17.884 166.892 17.518 166.76 17.092C166.628 16.666 166.562 16.195 166.562 15.679V9.856H168.326V15.679C168.326 16.333 168.476 16.843 168.776 17.209C169.076 17.569 169.535 17.749 170.153 17.749C170.603 17.749 171.023 17.644 171.413 17.434C171.803 17.218 172.169 16.924 172.511 16.552V9.856H174.266ZM183.068 5.716V19H181.304V5.716H183.068ZM187.411 9.856V19H185.656V9.856H187.411ZM187.744 7.03C187.744 7.192 187.711 7.348 187.645 7.498C187.579 7.642 187.489 7.771 187.375 7.885C187.267 7.993 187.138 8.08 186.988 8.146C186.838 8.206 186.682 8.236 186.52 8.236C186.358 8.236 186.205 8.206 186.061 8.146C185.917 8.08 185.788 7.993 185.674 7.885C185.566 7.771 185.479 7.642 185.413 7.498C185.353 7.348 185.323 7.192 185.323 7.03C185.323 6.862 185.353 6.706 185.413 6.562C185.479 6.412 185.566 6.283 185.674 6.175C185.788 6.061 185.917 5.974 186.061 5.914C186.205 5.848 186.358 5.815 186.52 5.815C186.682 5.815 186.838 5.848 186.988 5.914C187.138 5.974 187.267 6.061 187.375 6.175C187.489 6.283 187.579 6.412 187.645 6.562C187.711 6.706 187.744 6.862 187.744 7.03ZM191.707 5.716V13.483H192.121C192.247 13.483 192.352 13.465 192.436 13.429C192.52 13.393 192.607 13.321 192.697 13.213L195.433 10.198C195.517 10.084 195.61 10 195.712 9.946C195.814 9.886 195.943 9.856 196.099 9.856H197.701L194.47 13.393C194.296 13.615 194.11 13.786 193.912 13.906C194.026 13.984 194.125 14.074 194.209 14.176C194.299 14.278 194.386 14.389 194.47 14.509L197.908 19H196.333C196.189 19 196.063 18.976 195.955 18.928C195.853 18.88 195.76 18.793 195.676 18.667L192.85 14.995C192.76 14.857 192.67 14.77 192.58 14.734C192.49 14.692 192.355 14.671 192.175 14.671H191.707V19H189.952V5.716H191.707ZM204.763 13.411C204.763 13.063 204.712 12.742 204.61 12.448C204.514 12.154 204.37 11.899 204.178 11.683C203.986 11.467 203.752 11.299 203.476 11.179C203.2 11.059 202.882 10.999 202.522 10.999C201.784 10.999 201.202 11.212 200.776 11.638C200.356 12.064 200.089 12.655 199.975 13.411H204.763ZM206.212 17.695C205.996 17.947 205.747 18.166 205.465 18.352C205.183 18.532 204.883 18.679 204.565 18.793C204.247 18.907 203.917 18.991 203.575 19.045C203.239 19.099 202.906 19.126 202.576 19.126C201.946 19.126 201.361 19.021 200.821 18.811C200.287 18.595 199.822 18.283 199.426 17.875C199.036 17.461 198.73 16.951 198.508 16.345C198.292 15.733 198.184 15.031 198.184 14.239C198.184 13.603 198.283 13.012 198.481 12.466C198.679 11.914 198.961 11.434 199.327 11.026C199.699 10.618 200.152 10.297 200.686 10.063C201.22 9.829 201.82 9.712 202.486 9.712C203.044 9.712 203.557 9.805 204.025 9.991C204.499 10.171 204.907 10.435 205.249 10.783C205.591 11.131 205.858 11.56 206.05 12.07C206.248 12.58 206.347 13.162 206.347 13.816C206.347 14.086 206.317 14.269 206.257 14.365C206.197 14.455 206.086 14.5 205.924 14.5H199.93C199.948 15.046 200.026 15.523 200.164 15.931C200.302 16.333 200.491 16.669 200.731 16.939C200.977 17.209 201.268 17.41 201.604 17.542C201.94 17.674 202.315 17.74 202.729 17.74C203.119 17.74 203.455 17.695 203.737 17.605C204.025 17.515 204.271 17.419 204.475 17.317C204.685 17.209 204.859 17.11 204.997 17.02C205.141 16.93 205.267 16.885 205.375 16.885C205.519 16.885 205.63 16.939 205.708 17.047L206.212 17.695ZM215.648 19.144C214.91 19.144 214.34 18.937 213.938 18.523C213.542 18.109 213.344 17.518 213.344 16.75V11.278H212.282C212.18 11.278 212.093 11.248 212.021 11.188C211.955 11.122 211.922 11.026 211.922 10.9V10.189L213.407 9.982L213.803 7.255C213.827 7.153 213.872 7.075 213.938 7.021C214.01 6.961 214.1 6.931 214.208 6.931H215.099V10H217.691V11.278H215.099V16.633C215.099 16.993 215.186 17.263 215.36 17.443C215.54 17.617 215.768 17.704 216.044 17.704C216.206 17.704 216.344 17.683 216.458 17.641C216.578 17.599 216.68 17.554 216.764 17.506C216.848 17.452 216.92 17.404 216.98 17.362C217.04 17.32 217.094 17.299 217.142 17.299C217.202 17.299 217.247 17.314 217.277 17.344C217.313 17.368 217.349 17.41 217.385 17.47L217.907 18.316C217.619 18.58 217.277 18.784 216.881 18.928C216.485 19.072 216.074 19.144 215.648 19.144ZM223.151 9.712C223.823 9.712 224.429 9.823 224.969 10.045C225.515 10.261 225.977 10.576 226.355 10.99C226.739 11.398 227.033 11.893 227.237 12.475C227.441 13.051 227.543 13.699 227.543 14.419C227.543 15.139 227.441 15.79 227.237 16.372C227.033 16.954 226.739 17.449 226.355 17.857C225.977 18.265 225.515 18.58 224.969 18.802C224.429 19.018 223.823 19.126 223.151 19.126C222.473 19.126 221.861 19.018 221.315 18.802C220.775 18.58 220.313 18.265 219.929 17.857C219.545 17.449 219.248 16.954 219.038 16.372C218.834 15.79 218.732 15.139 218.732 14.419C218.732 13.699 218.834 13.051 219.038 12.475C219.248 11.893 219.545 11.398 219.929 10.99C220.313 10.576 220.775 10.261 221.315 10.045C221.861 9.823 222.473 9.712 223.151 9.712ZM223.151 17.758C224.015 17.758 224.66 17.467 225.086 16.885C225.512 16.303 225.725 15.484 225.725 14.428C225.725 13.372 225.512 12.553 225.086 11.971C224.66 11.383 224.015 11.089 223.151 11.089C222.275 11.089 221.621 11.383 221.189 11.971C220.763 12.553 220.55 13.372 220.55 14.428C220.55 15.484 220.763 16.303 221.189 16.885C221.621 17.467 222.275 17.758 223.151 17.758ZM239.95 12.07C239.662 11.692 239.35 11.428 239.014 11.278C238.684 11.128 238.312 11.053 237.898 11.053C237.094 11.053 236.47 11.344 236.026 11.926C235.588 12.502 235.369 13.345 235.369 14.455C235.369 15.037 235.417 15.535 235.513 15.949C235.615 16.357 235.759 16.693 235.945 16.957C236.137 17.215 236.371 17.407 236.647 17.533C236.923 17.653 237.235 17.713 237.583 17.713C238.093 17.713 238.534 17.599 238.906 17.371C239.278 17.143 239.626 16.822 239.95 16.408V12.07ZM241.714 5.716V19H240.652C240.406 19 240.253 18.883 240.193 18.649L240.04 17.596C239.65 18.058 239.206 18.43 238.708 18.712C238.216 18.988 237.646 19.126 236.998 19.126C236.476 19.126 236.002 19.024 235.576 18.82C235.156 18.616 234.796 18.319 234.496 17.929C234.196 17.533 233.965 17.044 233.803 16.462C233.641 15.88 233.56 15.211 233.56 14.455C233.56 13.777 233.65 13.147 233.83 12.565C234.01 11.983 234.271 11.479 234.613 11.053C234.955 10.627 235.369 10.294 235.855 10.054C236.341 9.808 236.89 9.685 237.502 9.685C238.054 9.685 238.522 9.775 238.906 9.955C239.296 10.135 239.644 10.39 239.95 10.72V5.716H241.714ZM248.06 9.712C248.732 9.712 249.338 9.823 249.878 10.045C250.424 10.261 250.886 10.576 251.264 10.99C251.648 11.398 251.942 11.893 252.146 12.475C252.35 13.051 252.452 13.699 252.452 14.419C252.452 15.139 252.35 15.79 252.146 16.372C251.942 16.954 251.648 17.449 251.264 17.857C250.886 18.265 250.424 18.58 249.878 18.802C249.338 19.018 248.732 19.126 248.06 19.126C247.382 19.126 246.77 19.018 246.224 18.802C245.684 18.58 245.222 18.265 244.838 17.857C244.454 17.449 244.157 16.954 243.947 16.372C243.743 15.79 243.641 15.139 243.641 14.419C243.641 13.699 243.743 13.051 243.947 12.475C244.157 11.893 244.454 11.398 244.838 10.99C245.222 10.576 245.684 10.261 246.224 10.045C246.77 9.823 247.382 9.712 248.06 9.712ZM248.06 17.758C248.924 17.758 249.569 17.467 249.995 16.885C250.421 16.303 250.634 15.484 250.634 14.428C250.634 13.372 250.421 12.553 249.995 11.971C249.569 11.383 248.924 11.089 248.06 11.089C247.184 11.089 246.53 11.383 246.098 11.971C245.672 12.553 245.459 13.372 245.459 14.428C245.459 15.484 245.672 16.303 246.098 16.885C246.53 17.467 247.184 17.758 248.06 17.758ZM253.344 7.228C253.536 7.054 253.746 6.889 253.974 6.733C254.202 6.577 254.451 6.439 254.721 6.319C254.991 6.199 255.282 6.106 255.594 6.04C255.912 5.968 256.254 5.932 256.62 5.932C257.106 5.932 257.553 6.001 257.961 6.139C258.375 6.277 258.729 6.475 259.023 6.733C259.323 6.991 259.557 7.303 259.725 7.669C259.893 8.029 259.977 8.434 259.977 8.884C259.977 9.34 259.908 9.736 259.77 10.072C259.638 10.402 259.47 10.69 259.266 10.936C259.062 11.182 258.837 11.398 258.591 11.584C258.351 11.764 258.123 11.935 257.907 12.097C257.697 12.259 257.514 12.421 257.358 12.583C257.208 12.739 257.118 12.916 257.088 13.114L256.917 14.473H255.72L255.594 12.988C255.564 12.712 255.612 12.472 255.738 12.268C255.864 12.064 256.026 11.875 256.224 11.701C256.428 11.521 256.653 11.347 256.899 11.179C257.145 11.011 257.373 10.825 257.583 10.621C257.793 10.411 257.97 10.177 258.114 9.919C258.258 9.655 258.33 9.343 258.33 8.983C258.33 8.737 258.282 8.515 258.186 8.317C258.09 8.119 257.958 7.951 257.79 7.813C257.622 7.669 257.424 7.561 257.196 7.489C256.968 7.411 256.725 7.372 256.467 7.372C256.107 7.372 255.801 7.417 255.549 7.507C255.297 7.591 255.081 7.684 254.901 7.786C254.727 7.888 254.583 7.984 254.469 8.074C254.355 8.158 254.259 8.2 254.181 8.2C254.007 8.2 253.881 8.125 253.803 7.975L253.344 7.228ZM255.09 17.947C255.09 17.785 255.12 17.632 255.18 17.488C255.24 17.344 255.321 17.218 255.423 17.11C255.531 17.002 255.657 16.918 255.801 16.858C255.945 16.792 256.101 16.759 256.269 16.759C256.431 16.759 256.584 16.792 256.728 16.858C256.872 16.918 256.998 17.002 257.106 17.11C257.214 17.218 257.298 17.344 257.358 17.488C257.424 17.632 257.457 17.785 257.457 17.947C257.457 18.115 257.424 18.271 257.358 18.415C257.298 18.559 257.214 18.685 257.106 18.793C256.998 18.901 256.872 18.985 256.728 19.045C256.584 19.105 256.431 19.135 256.269 19.135C256.101 19.135 255.945 19.105 255.801 19.045C255.657 18.985 255.531 18.901 255.423 18.793C255.321 18.685 255.24 18.559 255.18 18.415C255.12 18.271 255.09 18.115 255.09 17.947Z" fill="white"/>
<path d="M21 12C21 16.9706 16.9706 21 12 21C7.02944 21 3 16.9706 3 12C3 7.02944 7.02944 3 12 3C16.9706 3 21 7.02944 21 12Z" stroke="white" stroke-width="2"/>
</svg>
